# xmcd
#
# Track frame offsets: 
#        150
#        15752
#        34295
#        49467
#        70265
#        87205
#        104287
#        121300
#        135955
#        154495
#        173387
#        192260
#        208357
#        223707
#        238950
#        254512
#
# Disc length: 3616 seconds
#
# Revision: 0
# Processed by: cddbd v1.5.2PL0 Copyright (c) Steve Scherf et al.
# Submitted via: ExactAudioCopy v1.0b3
#
DISCID=e50e1e10
DTITLE=ยิว คนเขียนเพลง - Bonus 1
DYEAR=1900
DGENRE=Country
TTITLE0=วอนลมเกี่ยวใจ
TTITLE1=คำสัญญาที่หาดใหญ่
TTITLE2=จดหมายถึงพ่อ
TTITLE3=รักใน ก.ศ.น.
TTITLE4=รักเขาทำไม
TTITLE5=ทางรักสีดำ
TTITLE6=ให้รู้ว่ารัก
TTITLE7=ฝากดิน
TTITLE8=ทั้งรักทั้งเกลียด
TTITLE9=โกหกหน้าตาย
TTITLE10=จากจร
TTITLE11=ห่างไกล
TTITLE12=น้ำตาชายเหนือ
TTITLE13=ฝากใจไว้อีสาน
TTITLE14=รักครึ่งทาง
TTITLE15=ผู้หญิงคนนั้น
EXTD=
EXTT0=
EXTT1=
EXTT2=
EXTT3=
EXTT4=
EXTT5=
EXTT6=
EXTT7=
EXTT8=
EXTT9=
EXTT10=
EXTT11=
EXTT12=
EXTT13=
EXTT14=
EXTT15=
PLAYORDER=
